<svg id="Capa_1" enable-background="new 0 0 512 512" height="512" viewBox="0 0 512 512" width="512" xmlns="http://www.w3.org/2000/svg"><g><g id="Filled_outline"><path d="m451.314 323.314 14.945 14.945c3.428 3.427 8.664 4.276 13 2.11 5.014-2.507 7.421-8.319 5.649-13.637l-17.348-52.043c-2.128-6.382-8.1-10.687-14.827-10.689-3.086 0-6.103.914-8.671 2.625l-20.062 13.375v32c10.245 0 20.07 4.07 27.314 11.314z" fill="#fdc8a2"/><path d="m488 24h-70.464c-52.915.001-99.336 35.285-113.5 86.269-10.076 36.275-36.884 65.549-72.136 78.769l-7.9 2.962v72h112c22.091 0 40-17.909 40-40 22.091 0 40-17.909 40-40 22.091 0 40-17.909 40-40h-24c22.091 0 40-17.909 40-40h-24c22.091 0 40-17.909 40-40h-40c22.091 0 40-17.909 40-40z" fill="#dfdfdd"/><path d="m64 192v-80l-8-56h32l8 48v80l104-6.971 23.636-.245c13.035-.42 23.942 9.807 24.362 22.842.008.253.012.505.012.758.001 13.041-10.569 23.614-23.61 23.616h-128.4c-17.673 0-32-14.327-32-32z" fill="#fdc8a2"/><path d="m105.63 75.454c-19.756-9.783-34.844-26.978-41.975-47.838l-7.285-3.616-32.37 64.955 7.285 3.616c20.956-6.914 43.793-5.285 63.555 4.535l78.37 38.894 10.79-21.652z" fill="#ffb431"/><path d="m256 92c0-19.882-16.118-36-36-36h-2.662c-15.198 0-28.759 9.544-33.888 23.851l-3.61 10.069-19.84 6.08 13.12 16.96-3.606 16.227c-.867 3.904 1.281 7.848 5.031 9.237l20.455 7.576-8 73 45-35 7.5-58 2.451-1.79c7.854-5.736 12.785-14.637 13.483-24.337z" fill="#fdc8a2"/><path d="m152.423 253.056c4.576 11.441 15.655 18.943 27.977 18.944h11.6l8 16 56-24-8-48v-11.682c0-11.941-8.127-22.35-19.711-25.246-7.757-1.94-15.975-.207-22.288 4.7l-44.1 34.3c-10.603 8.246-14.469 22.514-9.478 34.984z" fill="#95c2da"/><path d="m264 296-56 24-8-32 56-24z" fill="#8cb8ce"/><path d="m456 456 13.267 26.534c1.675 3.35 5.099 5.466 8.844 5.466 5.461.001 9.888-4.426 9.889-9.887 0-.001 0-.001 0-.002v-52.222c.001-5.461-4.426-9.888-9.887-9.889-.001 0-.001 0-.002 0h-38.111v32z" fill="#fdc8a2"/><path d="m400 360h16v128h-16z"/><path d="m400 328h16v16h-16z"/><path d="m122.833 264c3.413 0 6.796-.651 9.965-1.919l100.209-40.081c9.056-3.622 14.994-12.394 14.993-22.148 0-13.173-10.679-23.852-23.852-23.852h-2.517c-3.703 0-7.355.862-10.667 2.518l-74.964 37.482-8-88 8-40-16-16-24-8v173.167c-.001 14.819 12.012 26.832 26.831 26.833z" fill="#ffd4b5"/><path d="m239.5 126-2.328 18h18.828c22.852 0 42.127-17.016 44.961-39.691l3.039-24.309h-4.593c-12.217 0-23.721-5.752-31.051-15.526l-.666-.887c-7.299-9.763-18.757-15.534-30.947-15.587-13.425-.162-26.498 4.29-37.034 12.611l32.291 35.389 2.924-.31c6.554-.693 12.698 3.296 14.733 9.564 1.641 5.051.271 10.595-3.534 14.3z" fill="#ffb431"/><path d="m208 320 .049-.021c.174-.37.166-.379-.049.021z" fill="#95c2da"/><path d="m440 347.78v140.22h-228.26c-29.934.001-54.201-24.264-54.203-54.197 0-8.438 1.969-16.76 5.753-24.303 15.69-31.27 42.42-84.58 44.72-89.43-.005-.023-.009-.046-.01-.07l.04.01c0-.01.01-.02.01-.03l55.95-23.98c19.788-.001 38.06 10.6 47.88 27.78 0 0 5.92 10.7 9.45 15.24 1.53 1.96 5.12 5.59 5.38 5.84l14.06-9.37 83.23-55.49c10.522 21.045 16 44.251 16 67.78z" fill="#8cb8ce"/><path d="m440 347.78v140.22h-85.86c-33.11 0-64.99-13.47-87.44-37.82-48.22-52.28-58.35-127.49-58.69-130.11-.005-.023-.009-.046-.01-.07l.05-.02 55.95-23.98c19.788-.001 38.06 10.6 47.88 27.78 0 0 5.92 10.7 9.45 15.24 1.53 1.96 5.12 5.59 5.38 5.84l14.06-9.37 83.23-55.49c10.522 21.045 16 44.251 16 67.78z" fill="#95c2da"/></g><g id="Outline"><path d="m20.06 96.224c3.99 1.976 8.664 5.586 13.351 4.037 8.544-2.831 17.527-4.107 26.521-3.766h.078c9.391.344 18.634 2.442 27.254 6.185l.346 2.079v109.96c-9.581-3.4-15.987-12.458-16-22.624v-80h-16v80c.022 19.001 13.388 35.374 32 39.2v5.972c0 19.238 15.595 34.833 34.833 34.833 4.431 0 8.822-.845 12.936-2.491l13.636-5.455c7.156 10.001 18.697 15.937 30.995 15.941h6.656l5.395 10.791 7.095 28.378c-4.437 9-19.791 39.683-43.4 86.741-15.403 30.705-2.999 68.083 27.707 83.487 8.654 4.341 18.203 6.603 27.885 6.603h67.262v-16h-67.262c-25.516-.001-46.199-20.687-46.198-46.202 0-7.192 1.68-14.284 4.904-20.712 8.221-16.383 19.473-38.819 28.654-57.169 1.985-3.967 3.864-7.725 5.6-11.209 2.493 10.191 5.511 20.246 9.043 30.125l-28.782 53.367 14.082 7.6 22.436-41.6c4.283 9.719 9.176 19.156 14.651 28.257l-31.179 18.312 8.1 13.8 31.846-18.7c4.878 6.917 10.198 13.511 15.925 19.743 23.68 25.666 57.691 40.388 93.325 40.388h85.855c4.418 0 8-3.582 8-8v-27.056l2.037 1.019 12.074 24.148c4.419 8.837 15.164 12.418 24.001 7.999 6.06-3.03 9.888-9.224 9.888-15.999v-52.222c-.011-9.875-8.014-17.878-17.889-17.889h-30.111v-60.223c-.005-5.828-.332-11.651-.979-17.443l13.579 13.583c7.52 7.526 19.717 7.532 27.243.012 5.167-5.162 6.97-12.802 4.657-19.729l-17.348-52.033c-4.043-12.139-17.012-18.857-29.26-15.157-2.237.674-117.958 77.419-117.958 77.419-1.634-2-9.112-14.615-9.112-14.615-10.146-17.701-28.203-29.426-48.5-31.494l-6.488-25.952-7.834-47.03s2.25-16.338-2.45-27.729c28.483-16.497 49.374-43.49 58.2-75.2 13.198-47.523 56.468-80.412 105.79-80.409h61.46c-3.668 14.123-16.409 23.987-31 24h-24.679c.449-2.643.676-5.319.679-8 0-4.418-3.582-8-8-8h-24v16h14.988c-3.666 14.118-16.401 23.982-30.988 24h-24v16h62.988c-3.666 14.118-16.402 23.981-30.988 24h-48v16h46.988c-3.666 14.118-16.401 23.982-30.988 24h-40v16h22.988c-3.666 14.118-16.402 23.981-30.988 24h-24v16h24c23.409-.033 43.391-16.923 47.321-40h.679c17.138-.013 32.97-9.159 41.542-24h53.458c-3.668 14.123-16.409 23.987-31 24h-32v16h22.992c-3.663 14.122-16.403 23.987-30.992 24h-40v16h30.992c-3.663 14.122-16.403 23.987-30.992 24h-59v16h59c23.64-.009 43.758-17.221 47.425-40.575 20.602-3.237 36.763-19.398 40-40 23.354-3.667 40.566-23.785 40.575-47.425-.001-1.222-.283-2.428-.826-3.523.946-.811 1.872-1.65 2.763-2.54 9.032-8.98 14.096-21.201 14.063-33.937-.001-1.222-.283-2.428-.826-3.523.946-.811 1.872-1.65 2.763-2.54 9.032-8.98 14.096-21.201 14.063-33.937 0-4.418-3.582-8-8-8h-4.236c7.906-8.78 12.267-20.185 12.236-32 0-4.418-3.582-8-8-8h-70.46c-56.51-.004-106.087 37.678-121.208 92.128-7.893 28.361-26.833 52.37-52.577 66.649-.737-.578-1.499-1.123-2.286-1.635l2.731-21.142h11.8c4.325.001 8.634-.523 12.833-1.56l-3.846-15.531c-2.94.726-5.958 1.092-8.987 1.091h-9.727l.8-6.212 4.627-4.508c6.016-5.813 8.177-14.554 5.562-22.5-3.106-9.437-12.136-15.635-22.059-15.14l-23.323-25.559c7.608-4.04 16.098-6.129 24.712-6.081h.132c9.674.069 18.76 4.651 24.567 12.388l.665.886c6.581 8.763 16.023 14.945 26.686 17.472l3.68-15.571c-7.019-1.663-13.235-5.732-17.567-11.5l-.665-.886c-8.828-11.746-22.635-18.696-37.328-18.789h-.17c-14.97-.118-29.545 4.805-41.377 13.976-8.961 5.211-15.796 13.418-19.3 23.174l-2.256 6.3-16.007 4.905c-1.355.419-2.574 1.192-3.531 2.239l-10.6-5.258c-.393-1.123-1.032-2.145-1.87-2.989l-16-16c-.878-.878-1.949-1.54-3.127-1.932l-24-8c-2.038-.676-4.263-.504-6.173.479-2.18-1.943-4.243-4.013-6.178-6.2-6.648-7.461-11.728-16.183-14.938-25.647-1.545-4.539-7.409-6.277-11.307-8.212-3.954-1.963-8.75-.351-10.718 3.6l-32.37 64.957c-1.947 3.963-.336 8.755 3.61 10.737zm427.55 327.871h30.111c1.043.001 1.888.846 1.889 1.889v52.222c-.001 1.043-.847 1.889-1.89 1.888-.715 0-1.368-.404-1.688-1.043l-13.267-26.534c-.774-1.548-2.029-2.803-3.577-3.577l-11.578-5.789zm6.623-297.377c-5.986 6.022-14.132 9.398-22.623 9.377h-32.679c.147-.876.274-1.758.373-2.649 10.892-3.797 20.062-11.372 25.848-21.351h37.458c-1.427 5.539-4.321 10.59-8.377 14.623zm16-40c-5.986 6.022-14.132 9.398-22.623 9.377h-16.679c.449-2.643.676-5.319.679-8 0-4.418-3.582-8-8-8h-12.261c2.202-2.461 4.146-5.142 5.8-8h61.461c-1.427 5.539-4.321 10.59-8.377 14.623zm-22.1 186.647c.612-.411 1.281-.728 1.987-.94 3.958-1.203 8.154.965 9.463 4.89l17.342 52.018c.115.339.175.694.177 1.052.001 1.804-1.461 3.267-3.265 3.267-.865 0-1.696-.343-2.308-.954l-14.95-14.95c-4.044-4.045-8.802-7.306-14.033-9.619-2.216-8.628-5.149-17.055-8.768-25.195zm-182.943 30.757c16.338.569 31.221 9.543 39.351 23.726l4.707 8.237c8.4 14.61 22.259 25.285 38.529 29.677l31.435 8.4 4.129-15.458-31.436-8.4c-4.124-1.109-8.076-2.778-11.748-4.958l80.1-53.4c7.467 17.701 11.327 36.714 11.353 55.926v132.223h-16v-120h-16v120h-45.855c-31.179 0-60.907-12.844-81.561-35.24-39.034-42.322-52.325-101.241-55.69-119.868l4.583-1.964c8.295 18.672 34.321 69.62 84.6 105.2l9.242-13.061c-46.446-32.868-71.3-81.195-79.1-98.459zm-10.994-12.7-41.1 17.615-4.069-16.277 41.1-17.615zm-12.952-64.867 5.442 32.657-43.294 18.554-4.627-9.253c-1.356-2.708-4.126-4.419-7.155-4.418h-11.6c-5.726-.002-11.229-2.225-15.35-6.2l70.929-28.372c1.979-.798 3.873-1.791 5.655-2.964zm-59.45-128.891c2.413-.739 4.335-2.574 5.187-4.949l3.609-10.068c1.564-4.337 4.175-8.22 7.6-11.306l19.654 21.541-13.114-3.827-4.48 15.36 15.36 4.48 4.081-13.993 6.009 6.585c1.716 1.878 4.222 2.83 6.752 2.564l2.924-.31c3.266-.346 6.193 2.022 6.539 5.287.192 1.813-.458 3.613-1.764 4.885l-6.623 6.451c-1.291 1.257-2.12 2.913-2.352 4.7l-5.573 43.083c-.611-.035-4.363-.057-4.363-.057-4.944.006-9.819 1.157-14.244 3.363l-7.533 3.767 3.1-28.258c.4-3.647-1.732-7.098-5.172-8.373l-20.461-7.572 3.61-16.23c.516-2.321-.026-4.751-1.481-6.632l-6.04-7.807zm-40.847 4.538 21.541 10.693 1.618 2.091-1.575 7.08-23.248-11.539zm-4.914 24.57 28.27 14.031c1.818 2.372 4.272 4.18 7.077 5.213l14.6 5.411-2.055 18.734-44.186 2.96-4.054-44.595zm40.491 59.923-34.008 17-1.331-14.638zm47.234-2.651c8.686.061 15.747 7.054 15.844 15.738l.006.215c.001 6.469-3.948 12.283-9.962 14.667l-100.209 40.083c-10.502 4.201-22.546-1.722-25.325-13.139-.361-1.484-.502-3.014-.502-4.541v-132.972-28.9l11.679 3.892 11.637 11.637-7.161 35.8c-.151.754-.192 1.527-.122 2.293l7.973 87.701c.32 3.515 2.765 6.588 6.207 7.373 1.837.419 3.729.175 5.366-.643l73.413-36.706c2.195-1.098 4.537-1.893 6.965-2.257 2.476-.371 4.191-.241 4.191-.241zm-165.384-146.817c3.827 8.823 9.038 16.979 15.436 24.16 3.129 3.541 6.531 6.829 10.176 9.836.062.051.124.1.187.15 1.114.917 2.26 1.813 3.437 2.69v11.58c-8.709-3.069-17.833-4.799-27.061-5.132h-.069c-8.384-.316-16.771.528-24.924 2.509zm357.236 306.868h-16v-16h16zm-163.4-19.778 13.59-8.443c16.81 27.049 54.41 74.371 117.428 87.387l-3.236 15.668c-68.877-14.224-109.623-65.383-127.782-94.612zm75.1 98.91c16.413 9.841 34.315 16.951 53.008 21.052l-3.412 15.632c-20.382-4.47-39.903-12.22-57.8-22.947zm-189.563-31.306c-11.768 21.183-13.375 46.538-4.376 69.037l3.267 8.166-14.856 5.942-3.266-8.166c-10.787-26.967-8.861-57.358 5.244-82.748zm6.634-11.941-13.986-7.77 8.888-16 13.987 7.77zm158.935-321.734-15.412-4.3.287-1.027c4.789-17.156 18.644-30.789 37.062-36.467l4.714 15.29c-13.19 4.066-23.046 13.591-26.365 25.479zm73.664 209.372 13.26 8.954-.6.883c-9.725 14.4-26.576 22.893-45.284 22.893-.469 0-.937 0-1.409-.016l.364-16c13.809.316 26.161-5.606 33.068-15.834zm-255.027-205.866-40-40 11.314-11.314 40 40zm-82.343 98.343h-24v-16h24z"/></g></g></svg>