<?xml version="1.0" encoding="iso-8859-1"?>
<!-- Generator: Adobe Illustrator 19.0.0, SVG Export Plug-In . SVG Version: 6.00 Build 0)  -->
<svg version="1.1" id="Capa_1" xmlns="http://www.w3.org/2000/svg" xmlns:xlink="http://www.w3.org/1999/xlink" x="0px" y="0px"
	 viewBox="0 0 512.001 512.001" style="enable-background:new 0 0 512.001 512.001;" xml:space="preserve">
<g>
	<g>
		<path d="M353.459,42.716c-39.026-20.709-152.616-20.476-191.202,0c-5.301,2.813-5.306,10.432-0.003,13.25
			c38.687,20.548,152.454,20.578,191.208,0C358.763,53.15,358.766,45.532,353.459,42.716z M188.423,49.342
			c21.413-5.232,47.481-7.122,69.436-7.122c22.05,0,48.109,1.907,69.436,7.122C288.443,58.835,227.287,58.838,188.423,49.342z"/>
	</g>
</g>
<g>
	<g>
		<path d="M511.75,493.765c-2.36-12.911-15.214-80.12-36.558-135.479c-1.49-3.863-5.83-5.792-9.697-4.3
			c-3.864,1.49-5.79,5.831-4.3,9.697c21.495,55.75,36.173,132.444,35.715,132.979c-0.091,0.105-0.343,0.341-0.888,0.335
			c-7.663-0.21-26.191-2.297-35.695-16.859c-1.424-8.123-8.656-48.345-19.023-88.482c-1.036-4.01-5.123-6.419-9.139-5.386
			c-4.01,1.036-6.422,5.127-5.386,9.139c8.76,33.912,15.253,67.905,17.815,81.978c-6.765,1.175-18.134,1.44-27.825-6.646
			c-16.718-97.25-17.121-99.614-17.155-99.776c-3.641-18.246-16.649-30.637-33.331-34.9c-4.774-1.22-44.347-11.048-49.706-12.379
			c31.681-31.143,74.905-51.938,108.469-22.38c7.356,6.479,14.836,16.939,22.227,31.084c1.915,3.665,6.44,5.095,10.122,3.174
			c3.671-1.919,5.092-6.45,3.174-10.122c-8.247-15.783-16.863-27.692-25.607-35.393c-25.031-22.046-56.287-24.061-90.385-5.825
			c-24.642,13.178-41.974,32.26-42.699,33.066c-0.648,0.719-1.124,1.531-1.444,2.386c-0.47-0.117-0.936-0.233-1.412-0.351v-20.158
			c22.755-13.164,38.058-37.081,38.976-64.71c17.924-4.279,26.366-21.352,19.631-35.574c8.19-33.258,10.23-78.884-23.564-85.401
			c-7.61-1.467-6.509-5.789-20.837-18.652c30.658-4.582,70.313-14.491,70.313-45.488c0-23.831-22.694-34.51-45.632-40.541
			C298.9-1.452,243.021-2.292,201.939,3.935c-4.095,0.62-6.912,4.443-6.291,8.539c0.62,4.094,4.436,6.916,8.539,6.291
			c16.254-2.462,34.814-3.764,53.671-3.764c29.942,0,110.681,4.468,110.681,34.34c0,41.413-167.602,43.454-210.444,16.832
			c-7.346-4.565-10.917-10.071-10.917-16.832c0-3.585,0-14.497,24.195-22.945c3.91-1.366,5.974-5.643,4.608-9.555
			c-1.366-3.91-5.641-5.969-9.555-4.608c-22.727,7.936-34.251,20.422-34.251,37.108c0,26.791,28.878,37.222,55.107,42.77
			c-20.843,14.702-34.102,33.86-37.364,60.26c-2.156,17.446,1.097,35.362,8.339,47.371c-6.355,14.266,2.77,30.54,20.388,34.697
			c0.899,27.259,15.803,50.905,38.046,64.18v20.706l-4.859,1.206c-0.284-1.169-0.852-2.286-1.714-3.242
			c-0.726-0.807-18.058-19.889-42.7-33.066c-34.099-18.235-65.354-16.221-90.385,5.826C32.174,329.561,5.201,466.679,0.25,493.765
			c-1.744,9.547,5.87,18.488,16.138,18.227c9.521-0.261,31.865-2.85,45.556-20.426c7.581,1.707,21.383,3.165,34.775-3.853
			c0.798,13.562,12.035,24.286,25.772,24.286c37.797,0,128.391,0,167.461,0c4.143,0,7.5-3.357,7.5-7.5s-3.357-7.5-7.5-7.5H176.313
			v-78.75c0-4.143-3.357-7.5-7.5-7.5s-7.5,3.357-7.5,7.5v33.792l-42.466-8.521l11.984-69.712
			c3.04-15.026,14.112-20.997,22.875-23.359c2.309-0.621,22.574-5.617,68.265-16.977l28.378,27.449v26.848
			c0,4.143,3.357,7.5,7.5,7.5c4.142,0,7.5-3.357,7.5-7.5v-26.846l28.398-27.452c125.711,31.218,3.107,0.763,72.215,18.161
			c6.025,2.329,16.103,8.234,18.925,22.176l11.983,69.708l-42.464,8.521v-33.788c0-4.143-3.357-7.5-7.5-7.5s-7.5,3.357-7.5,7.5
			c0,16.148,0,62.673,0,78.75h-14.452c-4.142,0-7.5,3.357-7.5,7.5s3.358,7.5,7.5,7.5c14.523,0,53.627,0,68.146,0
			c13.114,0,24.065-9.757,25.711-22.624c12.267,5.116,24.388,3.742,31.296,2.18c6.519,8.192,20.158,19.743,45.507,20.437
			C505.843,512.251,513.502,503.351,511.75,493.765z M161.291,467.337v29.662h-38.692c-6.836,0-11.883-6.182-10.771-12.652
			l4.476-26.038L161.291,467.337z M149.301,336.185c0.121-0.055,0.321-0.148,0.609-0.243
			C149.704,336.014,149.5,336.095,149.301,336.185z M149.802,335.963c-19.138,5.158-30.921,19.227-33.739,35.198
			c-2.401,13.951-13.934,80.953-16.621,96.569c-0.958,0.341-1.863,0.878-2.648,1.623c-10.009,9.51-22.269,9.271-29.391,8.034
			c2.562-14.073,9.056-48.067,17.815-81.979c1.036-4.011-1.376-8.102-5.386-9.139c-4.01-1.034-8.102,1.376-9.139,5.386
			c-10.37,40.145-17.601,80.375-19.024,88.487c-3.726,5.619-13.661,16.251-35.695,16.854c-0.426-0.003-1.021-0.272-0.97-0.534
			c8.736-47.784,35.44-163.007,71.945-195.158c20.133-17.73,44.725-19.082,73.091-4.018c16.999,9.026,30.514,21.539,36.122,27.135
			C142.961,337.643,162.57,332.742,149.802,335.963z M338.063,218.57v-18.939C347.127,204.098,347.264,214.042,338.063,218.57z
			 M178.584,218.628c-9.682-4.459-9.853-14.463,0-19.039V218.628z M183.352,182.975c-4.801,0.47-9.967,2.015-14.436,4.784
			c-3.573-8.164-5.771-20.091-4.108-33.549c3.464-28.034,20.078-44.97,44.813-58.393c24.534,3.079,54.231,3.837,82.374,1.467
			c23.514,15.595,22.134,27.629,39.229,30.926c20.436,3.942,17.699,37.782,13.812,58.102c-2.818-1.424-5.918-2.433-8.948-2.964
			c-1.452-2.541-3.436-4.11-3.336-4.009c-0.438-0.369-0.897-0.719-1.382-1.04c-17.666-11.731-14.92-18.798-24.892-20.614
			c-8.851-1.6-9.879,3.753-28.842,13.085c-46.18,22.724-79.12,9-84.806,8.826C189.255,179.495,185.88,180.781,183.352,182.975z
			 M284.02,322.007l-26.171,25.299l-26.153-25.297v-16.407c16.569,5.687,35.395,5.882,52.323,0.316V322.007z M211.69,275.943
			c-20.873-20.972-17.797-46.321-18.105-48.062v-32.944c38.648,10.235,79.265-0.802,110.121-22.082
			c4.956,6.91,12.29,13.244,19.341,17.92c0.022,55.068,0.011,30.258,0.014,41.054C323.061,290.514,250.638,315.075,211.69,275.943z
			 M393.098,496.999h-38.692v-29.662l45.007-9.032l4.455,25.916C405.013,490.889,399.88,496.999,393.098,496.999z"/>
	</g>
</g>
<g>
</g>
<g>
</g>
<g>
</g>
<g>
</g>
<g>
</g>
<g>
</g>
<g>
</g>
<g>
</g>
<g>
</g>
<g>
</g>
<g>
</g>
<g>
</g>
<g>
</g>
<g>
</g>
<g>
</g>
</svg>
